# Blender v2.80 (sub 75) OBJ File: ''
# www.blender.org
mtllib monkey3.mtl
o Cube
v 1.000000 1.000000 -2.660744
v 0.550486 -0.465779 -2.660744
v 1.000000 1.000000 2.023049
v 0.068618 -0.441457 1.000000
v -1.000000 1.000000 -2.660744
v -0.550486 -0.465779 -2.660744
v -1.000000 1.000000 2.023049
v -0.068618 -0.441457 1.000000
v 0.739883 1.000000 -2.151150
v 0.739883 1.000000 -0.588958
v -0.739883 1.000000 -2.151150
v -0.739883 1.000000 -0.588958
v 0.739883 1.671538 -2.151150
v 0.739883 1.671538 -0.588958
v -0.739883 1.671538 -2.151150
v -0.739883 1.671538 -0.588958
v 0.111309 1.000000 0.734576
v -0.111309 1.000000 0.734576
v 0.082356 1.000000 0.443836
v -0.082356 1.000000 0.443836
v 0.111309 5.679848 0.734576
v -0.111309 5.679848 0.734576
v 0.082356 5.679848 0.443836
v -0.082356 5.679848 0.443836
vt 0.625000 0.500000
vt 0.625000 0.250000
vt 0.625000 0.250000
vt 0.625000 0.500000
vt 0.375000 0.250000
vt 0.375000 0.500000
vt 0.625000 0.750000
vt 0.375000 0.750000
vt 0.625000 0.750000
vt 0.625000 1.000000
vt 0.375000 1.000000
vt 0.125000 0.500000
vt 0.375000 0.500000
vt 0.375000 0.750000
vt 0.125000 0.750000
vt 0.625000 0.500000
vt 0.875000 0.500000
vt 0.875000 0.750000
vt 0.875000 0.750000
vt 0.875000 0.500000
vt 0.875000 0.500000
vt 0.875000 0.750000
vt 0.625000 0.500000
vt 0.625000 0.750000
vt 0.375000 0.500000
vt 0.375000 0.750000
vt 0.375000 0.000000
vt 0.625000 0.000000
vt 0.625000 0.250000
vt 0.375000 0.250000
vt 0.375000 0.500000
vt 0.375000 0.750000
vt 0.625000 0.500000
vt 0.625000 0.750000
vt 0.625000 0.250000
vt 0.625000 0.250000
vt 0.375000 0.750000
vt 0.375000 0.750000
vt 0.375000 0.750000
vt 0.375000 0.750000
vt 0.625000 0.500000
vt 0.625000 0.250000
vt 0.625000 0.500000
vt 0.625000 0.250000
vt 0.625000 0.250000
vt 0.625000 0.500000
vn 0.0000 1.0000 0.0000
vn 0.0000 -0.5788 0.8155
vn -0.8947 -0.4436 0.0530
vn 0.0000 -1.0000 0.0066
vn 0.8947 -0.4436 0.0530
vn 0.0000 0.0000 -1.0000
vn 1.0000 0.0000 0.0000
vn -1.0000 0.0000 0.0000
vn 0.0000 0.0000 1.0000
vn 0.9951 0.0000 -0.0991
vn -0.9951 0.0000 -0.0991
usemtl Material
s off
f 7/1/1 3/2/1 17/3/1 18/4/1
f 4/5/2 3/2/2 7/1/2 8/6/2
f 8/6/3 7/1/3 5/7/3 6/8/3
f 6/8/4 2/9/4 4/10/4 8/11/4
f 2/12/5 1/13/5 3/14/5 4/15/5
f 6/16/6 5/17/6 1/18/6 2/9/6
f 9/19/6 11/20/6 15/21/6 13/22/6
f 5/7/1 7/1/1 12/23/1 11/24/1
f 3/14/1 1/13/1 9/25/1 10/26/1
f 1/18/1 5/17/1 11/20/1 9/19/1
f 13/27/1 15/28/1 16/29/1 14/30/1
f 10/26/7 9/25/7 13/31/7 14/32/7
f 11/24/8 12/23/8 16/33/8 15/34/8
f 12/23/9 10/35/9 14/36/9 16/33/9
f 17/37/10 19/38/10 23/39/10 21/40/10
f 12/23/1 7/1/1 18/4/1 20/41/1
f 3/14/1 10/26/1 19/38/1 17/37/1
f 10/35/1 12/23/1 20/41/1 19/42/1
f 22/43/1 21/44/1 23/45/1 24/46/1
f 18/4/9 17/3/9 21/44/9 22/43/9
f 20/41/11 18/4/11 22/43/11 24/46/11
f 19/42/6 20/41/6 24/46/6 23/45/6
