# Blender v2.80 (sub 75) OBJ File: ''
# www.blender.org
mtllib tree.mtl
o Cube
v 0.026391 2.496369 -0.026391
v 0.790588 0.728816 -0.790588
v 0.026391 2.496369 0.026391
v 0.790588 0.728816 0.790588
v -0.026391 2.496369 -0.026391
v -0.790588 0.728816 -0.790588
v -0.026391 2.496369 0.026391
v -0.790588 0.728816 0.790588
v 0.334416 0.496369 -0.334416
v 0.334416 0.496369 0.334416
v -0.334416 0.496369 -0.334416
v -0.334416 0.496369 0.334416
v 0.334416 0.004933 -0.334416
v 0.334416 0.004933 0.334416
v -0.334416 0.004933 -0.334416
v -0.334416 0.004933 0.334416
vt 0.375000 0.000000
vt 0.625000 0.000000
vt 0.625000 0.250000
vt 0.375000 0.250000
vt 0.375000 0.250000
vt 0.625000 0.250000
vt 0.625000 0.500000
vt 0.375000 0.500000
vt 0.625000 0.750000
vt 0.375000 0.750000
vt 0.375000 0.750000
vt 0.375000 0.500000
vt 0.125000 0.500000
vt 0.375000 0.500000
vt 0.375000 0.750000
vt 0.125000 0.750000
vt 0.625000 0.500000
vt 0.875000 0.500000
vt 0.875000 0.750000
vt 0.625000 0.750000
vt 0.125000 0.500000
vt 0.125000 0.750000
vt 0.125000 0.750000
vt 0.125000 0.500000
vt 0.625000 0.750000
vt 0.625000 0.500000
vt 0.375000 0.250000
vt 0.375000 0.750000
vt 0.625000 0.750000
vt 0.625000 1.000000
vt 0.375000 1.000000
vt 0.625000 0.500000
vt 0.375000 0.500000
vt 0.375000 0.250000
vn 0.0000 1.0000 0.0000
vn 0.0000 0.3968 0.9179
vn -0.9179 0.3968 0.0000
vn -0.4540 -0.8910 0.0000
vn 0.9179 0.3968 0.0000
vn 0.0000 0.3968 -0.9179
vn 1.0000 0.0000 0.0000
vn 0.4540 -0.8910 0.0000
vn 0.0000 -0.8910 -0.4540
vn 0.0000 -0.8910 0.4540
vn 0.0000 -1.0000 0.0000
vn 0.0000 0.0000 -1.0000
vn 0.0000 0.0000 1.0000
vn -1.0000 0.0000 0.0000
usemtl Material
s off
f 1/1/1 5/2/1 7/3/1 3/4/1
f 4/5/2 3/6/2 7/7/2 8/8/2
f 8/8/3 7/7/3 5/9/3 6/10/3
f 8/8/4 6/10/4 11/11/4 12/12/4
f 2/13/5 1/14/5 3/15/5 4/16/5
f 6/17/6 5/18/6 1/19/6 2/20/6
f 9/21/7 10/22/7 14/23/7 13/24/7
f 2/13/8 4/16/8 10/22/8 9/21/8
f 6/17/9 2/20/9 9/25/9 11/26/9
f 4/5/10 8/8/10 12/12/10 10/27/10
f 15/28/11 13/29/11 14/30/11 16/31/11
f 11/26/12 9/25/12 13/29/12 15/32/12
f 10/27/13 12/12/13 16/33/13 14/34/13
f 12/12/14 11/11/14 15/28/14 16/33/14
